<?xml version="1.0" standalone="no"?>
<!DOCTYPE svg PUBLIC "-//W3C//DTD SVG 1.1//EN" "http://www.w3.org/Graphics/SVG/1.1/DTD/svg11.dtd" >
<!--
2013-9-30: Created.
-->
<svg>
<metadata>
Created by iconfont
</metadata>
<defs>

<font id="iconfont" horiz-adv-x="1024" >
  <font-face
    font-family="iconfont"
    font-weight="500"
    font-stretch="normal"
    units-per-em="1024"
    ascent="896"
    descent="-128"
  />
    <missing-glyph />
    
    <glyph glyph-name="biaodan1" unicode="&#58881;" d="M874.00991357 834.00000088M219.27392422-41.92866240000001c-55.89032519 0-101.35868906 45.50214112-101.35868906 101.4270873L117.91523604 644.12134512c0 57.47869951 46.7079873 106.03514531 101.99538984 106.03514531l396.0396211 0 0-56.951775L219.910625 693.20471631c-23.74032041 0-45.3585876-23.39157128-45.3585876-49.08337032l0-584.62292021c0-24.6860833 20.06367012-44.77001924 44.72188682-44.77001924l584.25981504 0c25.91810683 0 49.51487461 21.60391113 49.51487461 45.33156563L853.04861386 456.09959239l56.95853028-1e-8 0-396.03962109c0-54.32897373-49.75469297-101.98863369-106.47340488-101.98863369L219.27392422-41.92866240000001zM236.83047998 48.72686894000003c-9.03878438 0-17.17402852 4.22468613-22.31661094 11.59318741-6.01910068 8.62839141-7.11432773 19.99527099-2.99941699 31.1772208l105.54284267 213.70764111c1.94472334 10.56551484 6.48438223 19.54350088 13.22969327 26.28796817L708.99551651 710.4479877c9.94992539 9.94992539 23.17201875 15.42774638 37.23769862 15.42774638 14.05132471 0 27.28101797-5.47782099 37.24445391-15.42099111L869.54456533 624.31100479c9.94317011-9.94317011 15.42099112-23.17961865 15.42099112-37.25796534s-5.47782099-27.30803994-15.42774639-37.2444539L490.82337002 170.83406133000005c-6.88886455-6.9023751-15.80436211-11.33985761-27.26075215-13.57168799L251.39606328 52.16454550000003C246.48569932 49.89133887000003 241.57617998 48.72686894000003 236.83047998 48.72686894000003zM265.28272315 117.52516026c-1.41019893-2.8693749-1.26664541-6.06047783 0.3284833-8.64190196 1.54108565-2.49275917 4.23904131-3.9857124 7.21059258-3.98571241 1.48619795 0 3.01968369 0.36310518 4.55401406 1.08171563l126.92804589 76.89215742-61.95755917 62.04622413L265.28272315 117.52516026zM373.14690576 294.22816581999996l80.43201036-80.50716475 269.78965224 269.96107237-81.01466807 79.93210781L373.14690576 294.22816581999996zM746.22561523 659.11083193c-5.4305332 0-10.54524903-2.12289873-14.39331855-5.98447969l-47.6461503-47.63179423 79.32327364-81.67838994 48.76839844 48.82328613c7.93680292 7.93680292 7.93680292 20.87179013-0.00675528 28.83561504l-51.61750664 51.65128388C756.78521943 656.9879340800001 751.66290372 659.11083193 746.22561523 659.11083193zM534.49731934 105.09683085999995l-1e-8 56.951775L787.48280352 162.04860585999995l0-56.951775L534.49731934 105.09683085999995zM657.01490469 203.11410820000003l0 56.951775L787.48280352 260.06588320000003l0-56.951775L657.01490469 203.11410820000003zM240.43957666 448.15603418l0 56.95853027 130.46789883 0 0-56.95853028L240.43957666 448.15603418zM240.43957666 546.1800668000001l0 56.951775 252.98548418 0 0-56.951775L240.43957666 546.1800668000001z"  horiz-adv-x="1024" />

    
    <glyph glyph-name="wenzi" unicode="&#59166;" d="M784 864H208C102.4 864 16 777.6 16 672v-576c0-105.6 86.4-192 192-192h576c105.6 0 192 86.4 192 192V672c0 105.6-86.4 192-192 192z m128-768c0-70.4-57.6-128-128-128H208c-70.4 0-128 57.6-128 128V672c0 70.4 57.6 128 128 128h576c70.4 0 128-57.6 128-128v-576zM816 576H560c-17.6 0-32-14.4-32-32s14.4-32 32-32h256c17.6 0 32 14.4 32 32s-14.4 32-32 32zM816 384H560c-17.6 0-32-14.4-32-32s14.4-32 32-32h256c17.6 0 32 14.4 32 32s-14.4 32-32 32zM164.8 321.6c16-6.4 35.2 1.6 41.6 17.6l24 60.8H288c17.6 0 32 14.4 32 32s-14.4 32-32 32h-33.6l49.6 128h6.4l92.8-251.2c6.4-16 24-25.6 41.6-19.2 16 6.4 25.6 24 19.2 41.6l-99.2 272c-4.8 12.8-16 20.8-30.4 20.8h-49.6c-12.8 0-25.6-8-30.4-20.8l-105.6-272c-9.6-16-1.6-35.2 16-41.6zM816 192H176c-17.6 0-32-14.4-32-32s14.4-32 32-32h640c17.6 0 32 14.4 32 32s-14.4 32-32 32z"  horiz-adv-x="1024" />

    
    <glyph glyph-name="biaoge" unicode="&#58959;" d="M972 501.25V699.127C972 771.958 912.958 831 840.126 831H180.874C108.042 831 49 771.958 49 699.126v-659.252C49-32.958 108.042-92 180.874-92h659.252C912.958-92 972-32.958 972 39.874V501.25zM134.229 745.772a65.668 65.668 0 0 0 46.708 19.354h659.368a65.899 65.899 0 0 0 65.82-66.062v-131.937h-791.25V699.063a65.668 65.668 0 0 0 19.354 46.708zM411.5 270.501V501.25h197.998V270.5H411.501z m197.998-65.876v-230.75H411.501v230.75h197.998z m-263.874 65.876h-230.75V501.25h230.75V270.5zM134.23-6.883a65.389 65.389 0 0 0-19.354 46.578v164.93h230.75v-230.75H180.937a65.555 65.555 0 0 0-46.708 19.242z m771.896 46.578a65.694 65.694 0 0 0-65.82-65.82h-164.93v230.75h230.75v-164.93z m0 230.806h-230.75V501.25h230.75V270.5z"  horiz-adv-x="1024" />

    
    <glyph glyph-name="wenben" unicode="&#58895;" d="M788.756757 647.168a41.513514 41.513514 0 0 0 3.985297-82.833297l-3.985297-0.19373H235.243243a41.513514 41.513514 0 0 0-3.985297 82.833297L235.243243 647.168h553.513514zM512 647.168a41.513514 41.513514 0 0 0 41.319784-37.528216l0.19373-3.985298v-470.486486a41.513514 41.513514 0 0 0-82.833298-4.012973l-0.19373 4.012973v470.486486a41.513514 41.513514 0 0 0 41.513514 41.513514zM899.459459 868.573405a110.702703 110.702703 0 0 0 110.702703-110.702702v-774.918919a110.702703 110.702703 0 0 0-110.702703-110.702703H124.540541a110.702703 110.702703 0 0 0-110.702703 110.702703v774.918919a110.702703 110.702703 0 0 0 110.702703 110.702702h774.918918z m0-83.027027H124.540541a27.675676 27.675676 0 0 1-27.481946-24.465297L96.864865 757.898378v-774.918919a27.675676 27.675676 0 0 1 24.437621-27.509621L124.540541-44.696216h774.918918a27.675676 27.675676 0 0 1 27.481946 24.437621l0.19373 3.238054v774.918919a27.675676 27.675676 0 0 1-24.437621 27.481946L899.459459 785.546378z"  horiz-adv-x="1024" />

    
    <glyph glyph-name="kong" unicode="&#59144;" d="M831.7 526.6H193.6L64 294v-290.3h897.2V294L831.7 526.6zM626.6 291.4c0-62.9-51-113.9-114-113.9s-114 51-114 113.9H117.5l103.8 198h582.5l103.8-198h-281zM502.2 765h39.1v-140.6h-39.1zM236.855 695.198l27.647 27.647 99.419-99.418-27.648-27.648zM667.547 623.363l99.418 99.419 27.648-27.648-99.418-99.418z"  horiz-adv-x="1024" />

    
    <glyph glyph-name="xuanzhuan" unicode="&#58917;" d="M470.848-45.728a437.44 437.44 0 0 1 314.144 132.544l-36.672 39.36a387.008 387.008 0 0 0-279.904-119.168c-214.496 0-388.544 173.92-388.544 388.576 0 214.496 173.92 388.544 388.544 388.544 203.2 0 369.856-156.128 386.816-354.976h-94.24l115.136-191.872 115.008 191.872h-83.2C889.664 654.56 701.024 832 470.88 832 228.48 832 32 635.552 32 393.152 31.872 150.72 228.448-45.76 470.848-45.76zM414.624 495.2c-17.248 17.408-40.96 26.176-70.496 26.176h-4.192c-31.136-1.504-55.392-10.816-72.256-27.936-16.736-17.12-26.176-42.048-28.064-74.144v-0.672c1.376-29.792 9.856-52.992 24.96-69.024 15.36-16.064 37.472-24.96 65.92-26.304h0.416c26.688 0.672 48.384 9.184 64.96 25.088-1.728-25.216-6.592-44.768-14.528-58.368-9.312-15.936-22.656-23.744-40.864-23.744h-1.472c-21.984 0-36.16 12.16-43.296 37.088a6.624 6.624 0 0 1-7.68 4.576l-37.6-8.096a6.72 6.72 0 0 1-4.192-2.976 6.784 6.784 0 0 1-0.8-5.12c5.76-22.496 16.448-39.776 32.064-51.2 15.36-11.36 35.744-17.152 60.288-17.152h1.888c36.384 0 64.16 13.344 82.656 39.648 17.792 25.472 26.944 63.904 26.944 114.048 0.288 27.104-2.432 50.72-7.936 70.112-6.08 19.968-14.848 36-26.72 48z m-20.48-80.096c-2.56-30.72-19.68-45.824-53.792-47.584-30.464 1.76-45.44 18.88-47.04 54.08 1.728 35.2 17.088 52.288 48.512 54.08 17.408-0.416 29.952-5.44 38.56-15.264 8.64-9.984 13.216-25.216 13.76-45.312zM654.208 481.984c-17.504 25.6-43.808 38.848-78.176 39.232H575.616c-34.24-1.472-60.672-15.104-78.336-40.576-17.28-24.8-26.56-61.344-27.36-108.8v-0.128c0.384-47.872 9.44-84.672 26.688-109.344 17.792-25.344 44.48-38.432 79.264-38.976h1.92c34.24 0 60.384 12.96 77.632 38.304 16.736 24.64 25.216 61.6 25.216 110.016-0.544 48.384-9.44 85.472-26.432 110.272z m-29.92-111.488c0-0.128 0-0.128 0 0 0-35.744-4.32-62.72-12.8-80.224-7.84-16.032-19.008-23.872-34.4-23.872h-2.4c-15.36 0-26.56 7.84-34.4 23.872-8.48 17.376-12.8 44.352-12.8 80.096 0 36.128 4.32 63.488 12.8 81.152 7.84 16.32 19.008 24.256 34.4 24.256H578.432c9.856 0 17.92-3.2 24.416-9.824 14.848-14.976 22.112-47.2 21.44-95.456zM654.624 630.56a50.432 50.432 0 1 1 0-100.864 50.432 50.432 0 0 1 0 100.864z m0-72a21.632 21.632 0 0 0-21.568 21.6c0 11.84 9.696 21.568 21.568 21.568a21.536 21.536 0 1 0 0-43.136z"  horiz-adv-x="1024" />

    
    <glyph glyph-name="zhihang" unicode="&#59001;" d="M826.56 756.8L161.856 367.232c-21.568-12.672-32.64-29.568-33.856-45.888v-6.144c1.536-19.584 17.28-37.44 46.208-45.312l128.96-34.944a25.728 25.728 0 0 1 30.976 19.2 26.688 26.688 0 0 1-17.856 32.32L187.776 321.28l655.04 383.872-71.424-527.616c-1.088-7.808-6.848-11.712-14.08-9.728l-274.24 75.2 222.272 229.44a27.328 27.328 0 0 1 0 37.632 25.28 25.28 0 0 1-36.48 0L425.152 258.56c-2.112-2.112-4.032-4.416-5.888-6.784a26.624 26.624 0 0 1-12.16-23.04c-2.56-7.936-3.84-16.192-3.84-24.512v-154.816c0-37.248 40.128-59.392 70.144-38.784l124.672 85.76a26.88 26.88 0 0 1 11.456 23.936 26.816 26.816 0 0 1-14.4 22.08 24.96 24.96 0 0 1-25.728-1.728l-114.56-78.784v133.824l289.088-79.232c37.184-10.24 73.088 14.336 78.4 53.888l72.896 538.176c6.336 45.376-30.016 71.04-68.736 48.256z"  horiz-adv-x="1024" />

    
    <glyph glyph-name="youxuanzhuan" unicode="&#59056;" d="M428.562303 735.853787v-114.417333L609.035985 758.702371 428.562303 896v-114.417334C242.17431 781.836363 77.033438 659.744696 20.316309 479.619847s8.054879-376.755857 160.146213-486.115108v58.667425C57.78418 157.377126 13.101801 329.177543 68.598014 482.156817S267.97212 736.392893 428.562303 735.853787zM1082.783366-120.706466m-73.61969 0l-665.700851 0q-73.61969 0-73.61969 73.61969l0 479.883676q0 73.61969 73.61969 73.61969l665.700851 0q73.61969 0 73.61969-73.61969l0-479.883676q0-73.61969-73.61969-73.61969Z"  horiz-adv-x="1090" />

    
    <glyph glyph-name="zuoxuanzhuan" unicode="&#59059;" d="M1021.460801 479.188035c55.894325-154.01282 10.891408-327.045679-112.63505-433.021319v-59.088286c153.15045 110.191669 218.371142 308.217277 161.295052 489.602345S846.639323 781.017389 658.91424 780.761872V896L477.145896 757.71744l181.752374-138.298529V734.704948c161.790116 0.542973 306.668205-101.567973 362.562531-255.516913zM0 503.62184m74.147814 0l670.476381 0q74.147814 0 74.147814-74.147814l0-483.326212q0-74.147814-74.147814-74.147814l-670.476381 0q-74.147814 0-74.147814 74.147814l0 483.326212q0 74.147814 74.147814 74.147814Z"  horiz-adv-x="1090" />

    
    <glyph glyph-name="gailan" unicode="&#59671;" d="M1017.17333333 185.45777778000001l-0.11377778 0.11377777-0.11377777 0.11377778C966.76977778 291.84000000000003 889.05955555 346.45333332999996 785.63555555 346.45333332999996s-181.13422222-54.72711111-231.424-160.768v-0.11377778c-6.144-13.08444445-6.144-28.33066667 0-41.4151111C604.50133333 38.115555549999954 682.21155555-16.49777777999998 785.63555555-16.49777777999998s181.13422222 54.72711111 231.424 160.768c6.144 13.08444445 6.144 28.21688889 0.11377778 41.18755556zM785.63555555 56.32000000000005c-70.656 0-122.19733333 34.13333333-160.54044444 108.65777778C663.32444445 239.50222222000002 714.97955555 273.63555555000005 785.63555555 273.63555555000005c70.656 0 122.19733333-34.13333333 160.54044445-108.65777777C907.94666667 90.45333332999996 856.29155555 56.32000000000005 785.63555555 56.32000000000005zM786.20444445 164.40888888999996m-63.71555556 0a63.71555555 63.71555555 0 1 1 127.43111111 0 63.71555555 63.71555555 0 1 1-127.43111111 0ZM84.19555555 702.57777778h800.99555556v-287.85777778h81.92V748.08888889c0 20.13866667-16.27022222 36.40888889-36.40888889 36.40888889H38.68444445c-20.13866667 0-36.40888889-16.27022222-36.4088889-36.40888889v-591.64444444c0-20.13866667 16.27022222-36.40888889 36.4088889-36.4088889h400.49777777v81.92H84.19555555V702.57777778zM754.23288889 581.85955555l-41.87022222 41.87022223c-3.52711111 3.52711111-9.32977778 3.52711111-12.85688889 0L490.38222222 414.37866667l-97.96266667 98.07644444c-3.52711111 3.52711111-9.32977778 3.52711111-12.85688888 0L215.38133333 348.27377778000005c-3.52711111-3.52711111-3.52711111-9.32977778 0-12.85688889l41.87022222-41.87022222c3.52711111-3.52711111 9.32977778-3.52711111 12.8568889 0l115.82577777 115.82577778 97.96266667-98.07644445c3.52711111-3.52711111 9.32977778-3.52711111 12.85688889 0l257.47911111 257.70666667c3.64088889 3.52711111 3.64088889 9.32977778 0 12.85688888z"  horiz-adv-x="1024" />

    
    <glyph glyph-name="undo" unicode="&#59271;" d="M511.4 772C290.5 771.7 112 593 112 372.1c0-128 60.2-242 153.8-315.2l-37.5-48c-4.1-5.3-0.3-13 6.3-12.9l167 0.8c5.2 0 9 4.9 7.7 9.9L369.8 169c-1.6 6.5-10 8.3-14.1 3L315 119.9c-10.2 8-20 16.7-29.3 26-29.4 29.4-52.5 63.6-68.6 101.7C200.4 287 192 328.9 192 372.1s8.4 85.1 25.1 124.5c16.1 38.1 39.2 72.3 68.6 101.7 29.4 29.4 63.6 52.5 101.7 68.6C426.9 683.6 468.8 692 512 692s85.1-8.4 124.5-25.1c38.1-16.1 72.3-39.2 101.7-68.6 29.4-29.4 52.5-63.6 68.6-101.7 16.7-39.4 25.1-81.3 25.1-124.5s-8.4-85.1-25.1-124.5c-16.1-38.1-39.2-72.3-68.6-101.7-7.5-7.5-15.3-14.5-23.4-21.2-3.4-2.8-3.9-7.7-1.2-11.1l39.4-50.5c2.8-3.5 7.9-4.1 11.4-1.3C854.5 135.2 912 246.9 912 372.1c0 221.1-179.4 400.2-400.6 399.9z"  horiz-adv-x="1024" />

    
    <glyph glyph-name="redo" unicode="&#59272;" d="M758.2 56.9C851.8 130.1 912 244.1 912 372.1 912 593 733.5 771.7 512.6 772 291.4 772.3 112 593.2 112 372.1c0-125.2 57.5-236.9 147.6-310.2 3.5-2.8 8.6-2.2 11.4 1.3l39.4 50.5c2.7 3.4 2.1 8.3-1.2 11.1-8.1 6.6-15.9 13.7-23.4 21.2-29.4 29.4-52.5 63.6-68.6 101.7C200.4 287 192 328.9 192 372.1s8.4 85.1 25.1 124.5c16.1 38.1 39.2 72.3 68.6 101.7 29.4 29.4 63.6 52.5 101.7 68.6C426.9 683.6 468.8 692 512 692s85.1-8.4 124.5-25.1c38.1-16.1 72.3-39.2 101.7-68.6 29.4-29.4 52.5-63.6 68.6-101.7 16.7-39.4 25.1-81.3 25.1-124.5s-8.4-85.1-25.1-124.5c-16.1-38.1-39.2-72.3-68.6-101.7-9.3-9.3-19.1-18-29.3-26L668.2 172c-4.1 5.3-12.5 3.5-14.1-3l-39.6-162.2c-1.2-5 2.6-9.9 7.7-9.9l167-0.8c6.7 0 10.5 7.7 6.3 12.9l-37.3 47.9z"  horiz-adv-x="1024" />

    
    <glyph glyph-name="buju" unicode="&#58900;" d="M1022.33818 0.134908c0-70.767369-51.606359-128.134908-115.266534-128.134908L115.947206-128c-63.660175 0-115.266534 57.367539-115.266534 128.134908L0.680672 766.587555c0 70.767369 51.606359 128.134908 115.266534 128.134908L907.070624 894.722463c63.660175 0 115.266534-57.367539 115.266534-128.134908L1022.337158 0.134908zM985.584976 739.015243c0 65.675617-47.893326 118.916202-106.973787 118.916202L144.40664 857.931444c-59.079439 0-106.973787-53.240584-106.973787-118.916202l0-711.308022c0-65.675617 47.893326-118.916202 106.973787-118.916202l734.20455 0c59.079439 0 106.973787 53.240584 106.973787 118.916202L985.584976 739.015243zM922.756733 606.685926c0-32.000767-24.461255-57.94192-54.636676-57.94192L166.453861 548.744006c-30.175422 0-54.636676 25.941153-54.636676 57.94192L111.817184 723.812553c0 32.000767 24.461255 57.94192 54.636676 57.94192l701.666196 0c30.175422 0 54.636676-25.941153 54.636676-57.94192L922.756733 606.685926zM638.645811 44.59728c0-32.000767-25.941153-57.94192-57.94192-57.94192L169.759104-13.34464c-32.000767 0-57.94192 25.941153-57.94192 57.94192l0 376.198849c0 32.000767 25.941153 57.94192 57.94192 57.94192l410.945808 0c32.000767 0 57.94192-25.941153 57.94192-57.94192L638.646833 44.59728zM931.442962 44.59728c0-32.000767-25.941153-57.94192-57.94192-57.94192L760.972525-13.34464c-32.000767 0-57.94192 25.941153-57.94192 57.94192l0 376.198849c0 32.000767 25.941153 57.94192 57.94192 57.94192l112.528517 0c32.000767 0 57.94192-25.941153 57.94192-57.94192L931.442962 44.59728z"  horiz-adv-x="1024" />

    
    <glyph glyph-name="zhihuan" unicode="&#60557;" d="M859.04 544H95.936a32 32 0 1 1 0-64h832a32 32 0 0 1 24.448 52.64l-189.088 224a32 32 0 0 1-48.896-41.28L859.04 544zM164.896 256H928a32 32 0 1 1 0 64H96a32 32 0 0 1-24.448-52.64l189.088-224a32 32 0 0 1 48.896 41.28L164.896 256z"  horiz-adv-x="1024" />

    
    <glyph glyph-name="insertrowright" unicode="&#59650;" d="M856 784h-80c-4.4 0-8-3.6-8-8v-784c0-4.4 3.6-8 8-8h80c4.4 0 8 3.6 8 8V776c0 4.4-3.6 8-8 8zM656 784H192c-17.7 0-32-14.9-32-33.3v-733.3c0-18.4 14.3-33.3 32-33.3h464c17.7 0 32 14.9 32 33.3V750.7c0 18.4-14.3 33.3-32 33.3zM392 56H232V232h160v-176z m0 240H232V472h160v-176z m0 240H232V712h160v-176z m224-480H456V232h160v-176z m0 240H456V472h160v-176z m0 240H456V712h160v-176z"  horiz-adv-x="1024" />

    
    <glyph glyph-name="insertrowleft" unicode="&#59651;" d="M248 784h-80c-4.4 0-8-3.6-8-8v-784c0-4.4 3.6-8 8-8h80c4.4 0 8 3.6 8 8V776c0 4.4-3.6 8-8 8zM832 784H368c-17.7 0-32-14.9-32-33.3v-733.3c0-18.4 14.3-33.3 32-33.3h464c17.7 0 32 14.9 32 33.3V750.7c0 18.4-14.3 33.3-32 33.3zM568 56H408V232h160v-176z m0 240H408V472h160v-176z m0 240H408V712h160v-176z m224-480H632V232h160v-176z m0 240H632V472h160v-176z m0 240H632V712h160v-176z"  horiz-adv-x="1024" />

    
    <glyph glyph-name="zuoyou" unicode="&#58969;" d="M387.476211 343.578947l45.325473-45.325473a40.421053 40.421053 0 0 0-57.182316-57.155369l-114.310736 114.310737a40.421053 40.421053 0 0 0 0 57.182316l114.310736 114.310737a40.421053 40.421053 0 0 0 57.182316-57.155369L387.476211 424.421053h249.047578l-45.325473 45.325473a40.421053 40.421053 0 0 0 57.182316 57.155369l114.310736-114.310737a40.421053 40.421053 0 0 0 0-57.182316l-114.310736-114.310737a40.421053 40.421053 0 0 0-57.182316 57.155369l45.325473 45.325473H387.503158zM215.578947 882.526316h592.842106A148.210526 148.210526 0 0 0 956.631579 734.315789v-700.631578a148.210526 148.210526 0 0 0-148.210526-148.210527H215.578947A148.210526 148.210526 0 0 0 67.368421 33.684211V734.315789A148.210526 148.210526 0 0 0 215.578947 882.526316z m0-80.842105A67.368421 67.368421 0 0 1 148.210526 734.315789v-700.631578A67.368421 67.368421 0 0 1 215.578947-33.684211h592.842106a67.368421 67.368421 0 0 1 67.368421 67.368422V734.315789A67.368421 67.368421 0 0 1 808.421053 801.684211H215.578947z"  horiz-adv-x="1024" />

    
    <glyph glyph-name="zuoyoubuju" unicode="&#59188;" d="M73.142857 603.428571h219.428572v-658.285714H146.285714a73.142857 73.142857 0 0 0-73.142857 73.142857V603.428571z m73.142857 219.428572h731.428572a73.142857 73.142857 0 0 0 73.142857-73.142857v-109.714286H73.142857V749.714286a73.142857 73.142857 0 0 0 73.142857 73.142857z m182.857143-219.428572h621.714286v-585.142857a73.142857 73.142857 0 0 0-73.142857-73.142857H329.142857V603.428571z"  horiz-adv-x="1024" />

    
    <glyph glyph-name="xuanze" unicode="&#58977;" d="M482.647-47.045H175.182c-55.567 0-100.66 43.596-100.66 97.267v673.19c0 53.672 45.093 97.268 100.66 97.268v-0.1h660.72c55.468 0 100.56-43.695 100.56-97.267V331.35h74.521V723.313c0 94.773-78.611 171.889-175.18 171.889H175.182C78.612 895.102 0.001 818.086 0.001 723.312v-673.19c0-94.673 78.512-171.789 175.181-171.789h307.465v74.622z m0 0M1008.49 218.72L473.27 537.158c-19.654 11.672-32.323 2.893-28.133-19.554l113.828-616.027c4.19-22.446 18.256-25.538 31.325-6.883 0 0 72.726 104.25 132.383 167.899l120.91-180.07c7.384-10.974 22.348-13.867 33.222-6.285l56.964 39.406c10.974 7.582 13.867 22.746 6.385 33.82l-120.712 179.77c76.517 31.724 184.56 58.46 184.56 58.46 22.045 5.487 24.041 19.453 4.487 31.026z"  horiz-adv-x="1024" />

    
    <glyph glyph-name="xuanze-" unicode="&#58955;" d="M791.81-30.81h-190a35 35 0 0 0 0 70h190a35 35 0 0 0 0-70z m-320 0h-190a35 35 0 1 0 0 70h190a35 35 0 0 0 0-70z m-311.65 30.42A34.92 34.92 0 0 0 135 10.23a134.27 134.27 0 0 0-38.23 93.95v113a35 35 0 0 0 70 0v-113A64.59 64.59 0 0 1 185.26 59a35 35 0 0 0-25.1-59.39z m724.15 31.68A35 35 0 0 0 852 79.65a64.14 64.14 0 0 1 4.84 24.54V255.31a35 35 0 0 0 70 0v-151.12a133.6 133.6 0 0 0-10.14-51.24 35 35 0 0 0-32.39-21.66z m-752.5 280.86a35 35 0 0 0-35 35v190a35 35 0 0 0 70 0v-190a35 35 0 0 0-35-35z m760 38.16a35 35 0 0 0-35 35v190a35 35 0 0 0 70 0v-190a35 35 0 0 0-35-35zM131.88 632.14h-1a35 35 0 0 0-34 36 135.32 135.32 0 0 0 134.94 131h35.93a35 35 0 0 0 0-70h-35.94c-34.8 0-63.94-28.3-65-63.08a35 35 0 0 0-34.93-33.92z m751.58 37A35 35 0 0 0 851.4 690a65.22 65.22 0 0 1-59.59 39.14h-74.07a35 35 0 0 0 0 70h74.07a135.22 135.22 0 0 0 123.67-81 35 35 0 0 0-32-49.09z m-295.72 60.05h-190a35 35 0 0 0 0 70h190a35 35 0 0 0 0-70zM704.14 348.14H319.33a34.65 34.65 0 1 0 0 69.3h384.81a34.65 34.65 0 0 0 0-69.3zM511.73 155.74a34.65 34.65 0 0 0-34.65 34.65v384.8a34.66 34.66 0 0 0 69.31 0v-384.8a34.65 34.65 0 0 0-34.66-34.65z"  horiz-adv-x="1024" />

    
    <glyph glyph-name="zujian" unicode="&#58938;" d="M130.3 518.4v89.3c0 49.6 40.3 89.9 90.1 89.9h89.5c0 74.2 60.3 134.4 134.7 134.4s134.7-60.2 134.7-134.4h89.5c49.7 0 90.1-40.2 90.1-89.9v-89.3c74.4 0 134.7-60.2 134.7-134.4s-60.3-134.4-134.7-134.4v-89.3c0-49.6-40.3-89.9-90.1-89.9h-89.5c0-74.2-60.3-134.4-134.7-134.4s-134.7 60.2-134.7 134.4h-89.5c-49.7 0-90.1 40.2-90.1 89.9v89.3c74.4 0 134.7 60.2 134.7 134.4s-60.3 134.4-134.7 134.4zM309.9 384c0-83.5-57.2-153.7-134.7-173.5v-50.2c0-24.9 20.2-45.1 45.2-45.1h134.5v-44.8c0-49.5 40.2-89.6 89.8-89.6s89.8 40.1 89.8 89.6v44.8H669c25 0 45.2 20.2 45.2 45.1V294.4H759c49.6 0 89.8 40.1 89.8 89.6 0 49.5-40.2 89.6-89.8 89.6h-44.9V607.7c0 24.9-20.2 45.1-45.2 45.1H534.5v44.8c0 49.5-40.2 89.6-89.8 89.6s-89.8-40.1-89.8-89.6v-44.8H220.4c-25 0-45.2-20.2-45.2-45.1v-50.2c77.5-19.8 134.7-90 134.7-173.5z"  horiz-adv-x="1024" />

    
    <glyph glyph-name="zujianicon" unicode="&#58919;" d="M896 358.4h-307.2c-28.29824 0-51.2-22.92224-51.2-51.2v-307.2c0-28.29824 22.92736-51.2 51.2-51.2h307.2c28.29824 0 51.2 22.92224 51.2 51.2v307.2c0 28.29824-22.92224 51.2-51.2 51.2z m-0.84992-329.29792a31.02208 31.02208 0 0 0-31.02208-31.01696H619.008a31.02208 31.02208 0 0 0-31.02208 31.01696v245.12a31.0272 31.0272 0 0 0 31.02208 31.02208h245.12a31.0272 31.0272 0 0 0 31.02208-31.02208v-245.12zM435.2 358.4H128c-28.30336 0-51.2-22.92736-51.2-51.2v-307.2c0-28.29824 22.92736-51.2 51.2-51.2h307.2c28.30336 0 51.2 22.92224 51.2 51.2v307.2c0 28.29824-22.92224 51.2-51.2 51.2z m-1.70496-329.29792a31.01696 31.01696 0 0 0-31.01696-31.01696H157.35296a31.01696 31.01696 0 0 0-31.01696 31.01696v245.12a31.02208 31.02208 0 0 0 31.01696 31.02208h245.12a31.02208 31.02208 0 0 0 31.01696-31.02208v-245.12zM128 409.6h307.2c28.30336 0 51.2 22.92736 51.2 51.2V768c0 28.30336-22.92736 51.2-51.2 51.2H128c-28.30336 0-51.2-22.92736-51.2-51.2v-307.2c0-28.29824 22.92736-51.2 51.2-51.2z m-1.664 327.12704a31.01696 31.01696 0 0 0 31.01696 31.01696h245.12a31.01696 31.01696 0 0 0 31.01696-31.01696v-245.12a31.01696 31.01696 0 0 0-31.01696-31.01696H157.35296a31.01696 31.01696 0 0 0-31.01696 31.01696V736.72704zM1009.36192 594.0224L855.76704 860.06272a51.18976 51.18976 0 0 1-69.94432 18.7392v-0.00512L519.7824 725.20704c-24.50944-14.15168-32.87552-45.45536-18.7392-69.94432l153.59488-266.0352a51.18976 51.18976 0 0 1 69.94432-18.74432l266.04032 153.6c24.50944 14.14656 32.87552 45.45024 18.7392 69.9392z m-78.70464-38.05184l-201.94304-117.92896a29.5936 29.5936 0 0 0-40.4736 10.63424L570.3168 650.61376a29.59872 29.59872 0 0 0 10.63424 40.4736l201.93792 117.92896a29.5936 29.5936 0 0 0 40.4736-10.63424l117.9136-201.93792a29.57824 29.57824 0 0 0-10.61888-40.4736z"  horiz-adv-x="1024" />

    
    <glyph glyph-name="tuichu" unicode="&#58918;" d="M457.181 713.884c-56.084 0-101.542-44.343-101.542-99.032v-95.381h67.693v95.381c0 18.228 15.163 33.009 33.849 33.009h392.61c18.691 0 33.849-14.781 33.849-33.009v-462.156c0-18.228-15.158-33.004-33.849-33.004h-392.61c-18.686 0-33.849 14.776-33.849 33.004v95.391h-67.693v-95.391c0-54.694 45.458-99.027 101.542-99.027h392.61c56.084 0 101.542 44.333 101.542 99.027V614.852c0 54.699-45.458 99.032-101.542 99.032h-392.61zM264.494 539.16c13.218-12.887 13.218-33.793 0-46.68l-77.601-75.692h423.17c18.691 0 33.849-14.781 33.849-33.014 0-18.223-15.158-33.009-33.849-33.009h-423.17l77.601-75.697c13.218-12.887 13.218-33.793 0-46.675-13.213-12.887-34.648-12.887-47.856 0L81.257 360.434c-6.349 6.196-9.924 14.587-9.924 23.34 0 8.763 3.574 17.149 9.924 23.345L216.638 539.16c13.208 12.892 34.643 12.892 47.856 0z"  horiz-adv-x="1024" />

    
    <glyph glyph-name="eye" unicode="&#59279;" d="M942.2 409.8C847.4 609.5 704.1 710 512 710c-192.2 0-335.4-100.5-430.2-300.3-7.7-16.2-7.7-35.2 0-51.5C176.6 158.5 319.9 58 512 58c192.2 0 335.4 100.5 430.2 300.3 7.7 16.2 7.7 35 0 51.5zM512 130c-161.3 0-279.4 81.8-362.7 254C232.6 556.2 350.7 638 512 638c161.3 0 279.4-81.8 362.7-254C791.5 211.8 673.4 130 512 130zM508 560c-97.2 0-176-78.8-176-176s78.8-176 176-176 176 78.8 176 176-78.8 176-176 176z m0-288c-61.9 0-112 50.1-112 112s50.1 112 112 112 112-50.1 112-112-50.1-112-112-112z"  horiz-adv-x="1024" />

    
    <glyph glyph-name="save" unicode="&#59281;" d="M893.3 602.7L730.7 765.3c-7.5 7.5-16.7 13-26.7 16V784H144c-17.7 0-32-14.3-32-32v-736c0-17.7 14.3-32 32-32h736c17.7 0 32 14.3 32 32V557.5c0 17-6.7 33.2-18.7 45.2zM384 712h256v-104H384V712z m456-656H184V712h136v-136c0-17.7 14.3-32 32-32h320c17.7 0 32 14.3 32 32V690.2l136-136V56zM512 454c-79.5 0-144-64.5-144-144s64.5-144 144-144 144 64.5 144 144-64.5 144-144 144z m0-224c-44.2 0-80 35.8-80 80s35.8 80 80 80 80-35.8 80-80-35.8-80-80-80z"  horiz-adv-x="1024" />

    
    <glyph glyph-name="submit" unicode="&#58904;" d="M754.4-62.2c-11.6 0-23.1 3.4-33.2 10.1L497.8 96.1c-13.4 8.9-17 27-8.1 40.3 8.9 13.5 26.9 16.9 40.3 8.1l223.3-148.4L851.7 771 172.9 385l210.6-143.1c13.4-8.9 17-27 8.1-40.3-8.9-13.5-26.9-16.9-40.3-8.1L140.7 333.4c-17.4 11.6-27.5 30.9-26.8 51.9 0.7 20.9 11.9 39.7 30.1 50.1L820 823.6c19.9 11.3 44 10.5 63.2-2.1 19-12.7 29.2-34.7 26.3-57.3L814-9.6c-2.6-20.8-15.4-38.4-34.6-47.2-8-3.6-16.6-5.4-25-5.4z m0 0M370.4-62.2c-16 0-29.1 13-29.1 29.1V101.1l495.4 694.8c9.4 13 27.6 16 40.5 6.9 13-9.3 16.1-27.5 6.9-40.5L399.5 82.4v-115.6c0-16-13.1-29-29.1-29z"  horiz-adv-x="1024" />

    
    <glyph glyph-name="delete" unicode="&#58880;" d="M882.265952 28.454393340000024h-525.027712a38.419008 38.419008 0 0 0-25.821085 9.940396l-0.002046 0.00307a34.879392 34.879392 0 0 0-7.104815 5.485945L89.457428 278.73462334c-14.542204 14.544251-22.552645 33.880645-22.552645 54.448076 0 20.568455 8.010441 39.906895 22.552645 54.451146l234.866169 234.866169a34.945907 34.945907 0 0 0 8.509814 6.263657l0.00307 0.00307a38.558178 38.558178 0 0 0 24.401759 8.719592h525.026688c42.460044 0 77.003791-34.543747 77.003792-77.003791v-455.023334c0.001023-42.461067-34.542724-77.004815-77.002768-77.004815z m-536.726148 34.120098l2.5071-1.463327 2.155083-1.951445c1.955538-1.76725 4.38896-2.703575 7.036253-2.703575h525.026688c27.0204 0 49.002041 21.98164 49.002041 49.00204v455.023335c0 27.0204-21.98164 49.002041-49.002041 49.00204H357.23824c-2.459005 0-4.756327-0.818645-6.641257-2.366907l-2.225691-1.823532-2.541892-1.333368a7.028067 7.028067 0 0 1-1.705852-1.26276L109.258403 367.83184733999997c-9.256828-9.254781-14.352893-21.560038-14.352893-34.650171 0-13.088086 5.096065-25.393343 14.352893-34.650171l234.866169-234.864122a7.163143 7.163143 0 0 1 1.415232-1.092892zM497.68497 190.73438334000002c-6.723122-0.00307-13.44522 2.557242-18.563798 7.676843l-6.535857 6.535857c-10.234085 10.234085-10.234085 26.88737 0.002047 37.121456l92.040252 92.045369-92.040252 92.042299c-10.236132 10.236132-10.236132 26.89044 0 37.126572l6.53381 6.53381c10.241248 10.234085 26.892487 10.229992 37.126572 0l92.044346-92.042299 92.043323 92.042299c10.234085 10.234085 26.88737 10.234085 37.121455 0l6.535857-6.531763c10.237155-10.237155 10.237155-26.892487 0-37.127596L651.952472 334.11493134l92.040253-92.045369c10.237155-10.234085 10.237155-26.88737 0-37.121456l-6.535857-6.535857c-10.234085-10.241248-26.88737-10.241248-37.121455 0l-92.043323 92.040253-92.044346-92.040253c-5.117554-5.120624-11.842723-7.677866-18.562774-7.677866z"  horiz-adv-x="1024" />

    
    <glyph glyph-name="jiaohuan" unicode="&#58951;" d="M0 591.168h93.312c2.304 94.016 37.44 171.712 111.616 229.824 58.432 45.76 126.08 59.904 199.36 54.208v-113.856h-7.296c-19.584-0.832-39.232-0.448-58.496-2.944-30.08-3.84-56.128-17.664-78.72-37.632a168.064 168.064 0 0 1-54.464-94.08c-2.432-11.264-3.136-22.976-4.672-35.072h84.416c-48-56.192-95.168-111.296-142.72-166.784L0 591.168zM477.12-90.56a53.376 53.376 0 0 0-33.344-10.368c-120.192 0-240.32-0.128-360.448 0.064-26.944 0.064-46.08 14.592-52.992 39.552a60.992 60.992 0 0 0-1.856 15.616c-0.128 106.752-0.128 213.504-0.064 320.32 0 26.944 14.464 46.592 39.744 53.44 5.504 1.472 11.52 1.856 17.28 1.92l177.984 0.064h178.56c13.312 0 25.664-2.816 36.352-11.328a51.648 51.648 0 0 0 19.904-37.76 49.856 49.856 0 0 0 0.256-6.208v-320.384c0-18.432-6.464-33.664-21.376-44.928z m43.968 546.688a51.776 51.776 0 0 0-21.44 43.328 90963.2 90963.2 0 0 0 0.064 323.712c0 25.984 15.36 45.376 40.256 51.904 5.248 1.344 10.752 1.664 16.192 1.664l356.992 0.064c22.784 0 40.896-8.704 50.88-29.76a59.392 59.392 0 0 0 5.376-23.936c0.32-107.904 0.256-215.808 0.128-323.712a51.264 51.264 0 0 0-39.68-51.776 68.608 68.608 0 0 0-17.344-1.856c-59.328-0.128-118.656 0-177.92 0H556.096a56.384 56.384 0 0 0-35.008 10.368z m409.472-272.32c-2.688-97.856-40.256-177.472-119.488-235.456-56.896-41.664-121.856-53.824-191.552-48.512V13.76c11.072 0 22.016-0.384 32.832 0.128 12.352 0.576 25.024 0.768 37.056 3.264 45.696 9.28 80.704 34.624 105.792 73.6 17.984 27.84 26.624 58.624 27.264 92.48H738.56l142.912 166.976L1024 183.68h-93.44v0.128z"  horiz-adv-x="1024" />

    
    <glyph glyph-name="command" unicode="&#59049;" d="M786.9 282.9H685.8v203h101.1c95.4 0 173.1 77.6 173.1 173.1S882.4 832 786.9 832s-173.1-77.6-173.1-173.1v-101.1H411.6V658.9C411.6 754.3 334 832 238.5 832c-95.4 0-173.1-77.6-173.1-173.1S143 485.8 238.5 485.8h101.1v-203H238.5c-95.4 0-173.1-77.6-173.1-173.1S143-63.4 238.5-63.4c95.4 0 173.1 77.6 173.1 173.1V210.9h202.3v-101.1c0-95.4 77.6-173.1 173.1-173.1s173 77.6 173 173.1-77.6 173.1-173.1 173.1z m-101.1 376c0 55.7 45.3 101.1 101.1 101.1S888 714.7 888 658.9s-45.3-101.1-101.1-101.1H685.8V658.9z m-548.4 0c0 55.7 45.3 101.1 101.1 101.1 55.7 0 101.1-45.3 101.1-101.1v-101.1H238.5c-55.7 0.1-101.1 45.4-101.1 101.1z m202.2-549.1c0-55.7-45.3-101.1-101.1-101.1-55.7 0-101.1 45.3-101.1 101.1s45.3 101.1 101.1 101.1h101.1v-101.1z m72 376.1h202.3v-203H411.6v203z m375.3-477.2c-55.7 0-101.1 45.3-101.1 101.1V210.9h101.1c55.7 0 101.1-45.3 101.1-101.1s-45.3-101.1-101.1-101.1z"  horiz-adv-x="1024" />

    
    <glyph glyph-name="biaodanzujian-shurukuang" unicode="&#60308;" d="M635.328 160a32 32 0 0 1-32 32H96V544h507.2a32 32 0 1 1 0 64H64a32 32 0 0 1-32-32v-416a32 32 0 0 1 32-32h539.328a32 32 0 0 1 32 32zM960 608h-92.928a32 32 0 1 1 0-64H928v-352h-60.288a32 32 0 1 1 0-64H960a32 32 0 0 1 32 32V576a32 32 0 0 1-32 32zM832.672 48H768v640h64.288a32 32 0 1 1 0 64H639.36a32 32 0 1 1 0-64H704v-640h-64.64a32 32 0 1 1 0-64h193.28a32 32 0 1 1 0.032 64z"  horiz-adv-x="1024" />

    
    <glyph glyph-name="biaodanzujian-xialakuang" unicode="&#60310;" d="M960 768H64a32 32 0 0 1-32-32v-416a32 32 0 0 1 32-32h896a32 32 0 0 1 32 32V736a32 32 0 0 1-32 32z m-32-416H96V704h832v-352zM896 248.736a32 32 0 0 1-32-32V64H160v152.736a32 32 0 1 1-64 0V32a32 32 0 0 1 32-32h768a32 32 0 0 1 32 32v184.736a32 32 0 0 1-32 32zM685.92 425.632a31.904 31.904 0 0 1 45.728 0l123.232 126.016a31.968 31.968 0 1 1-45.76 44.736l-100.352-102.624-100.384 102.624a32 32 0 0 1-45.76-44.736l123.296-126.016z"  horiz-adv-x="1024" />

    
    <glyph glyph-name="tubiao-bingtu" unicode="&#60311;" d="M896 416c-1.344 0-2.464-0.608-3.744-0.768-1.28 0.16-2.432 0.768-3.744 0.768H544V764c0 0.704-0.352 1.312-0.416 2.016 0.064 0.672 0.416 1.28 0.416 1.984a32 32 0 0 1-32 32C282.624 800 96 613.376 96 384s186.624-416 416-416 416 186.624 416 416a32 32 0 0 1-32 32zM512 32C317.92 32 160 189.92 160 384 160 567.296 300.864 718.144 480 734.368V384a32 32 0 0 1 32-32h350.368C846.144 172.864 695.296 32 512 32zM625.664 717.28a355.36 355.36 0 0 0 216.832-211.84 32 32 0 1 1 60.064 22.048 414.24 414.24 0 0 1-256.224 250.336 31.968 31.968 0 1 1-20.672-60.544z"  horiz-adv-x="1024" />

    
    <glyph glyph-name="tubiao-qiapian" unicode="&#60312;" d="M928 736H96a32 32 0 0 1-32-32v-672a32 32 0 0 1 32-32h832a32 32 0 0 1 32 32V704a32 32 0 0 1-32 32z m-32-672H128V672h768v-608zM230.592 447.904H544a32 32 0 1 1 0 64H230.592a32 32 0 0 1 0-64zM230.592 255.904H544a32 32 0 1 1 0 64H230.592a32 32 0 1 1 0-64zM768 192a32 32 0 0 1 32 32V545.984a32 32 0 1 1-64 0V224a32 32 0 0 1 32-32z"  horiz-adv-x="1024" />

    
    <glyph glyph-name="tubiao-zhexiantu" unicode="&#60313;" d="M896 0H96a32 32 0 0 0-32 32V672a32 32 0 0 0 64 0v-608h768a32 32 0 1 0 0-64zM247.008 256a32 32 0 0 0-20.992 56.192l200.992 174.24a32 32 0 0 0 42.272-0.288l172.128-153.44 229.088 246.304a32 32 0 0 0 46.88-43.616l-250.432-269.216a31.936 31.936 0 0 0-44.704-2.08l-174.56 155.52-179.744-155.84a31.872 31.872 0 0 0-20.928-7.776z"  horiz-adv-x="1024" />

    
    <glyph glyph-name="tubiao-zhuzhuangtu" unicode="&#60314;" d="M896 0H96a32 32 0 0 0-32 32V672a32 32 0 0 0 64 0v-608h768a32 32 0 1 0 0-64zM512 143.84a32 32 0 0 0-32 32V545.376a32 32 0 0 0 64 0v-369.536a32 32 0 0 0-32-32zM320 143.424a32 32 0 0 0-32 32V384a32 32 0 0 0 64 0v-208.576a32 32 0 0 0-32-32zM896 143.328a32 32 0 0 0-32 32V732.512a32 32 0 1 0 64 0v-557.184a32 32 0 0 0-32-32zM704 143.264a32 32 0 0 0-32 32V672a32 32 0 1 0 64 0v-496.736a32 32 0 0 0-32-32z"  horiz-adv-x="1024" />

    
    <glyph glyph-name="xingzhuang-tupian" unicode="&#60315;" d="M928 0H96a32 32 0 0 0-32 32V736a32 32 0 0 0 32 32h832a32 32 0 0 0 32-32v-116.864a32 32 0 1 0-64 0V704H128v-640h768V427.456l-206.336-244.736a31.968 31.968 0 0 0-44.896-4l-196.064 162.752-194.656-180.224a31.936 31.936 0 1 0-43.456 46.944l215.232 199.296a32.032 32.032 0 0 0 42.176 1.152l193.216-160.384 242.336 287.456a32.128 32.128 0 0 0 35.424 9.44c12.608-4.608 21.024-16.64 21.024-30.08V32a32 32 0 0 0-32-32zM304 416C242.24 416 192 466.24 192 528S242.24 640 304 640 416 589.76 416 528 365.76 416 304 416z m0 160c-26.464 0-48-21.536-48-48S277.536 480 304 480s48 21.536 48 48-21.536 48-48 48z"  horiz-adv-x="1024" />

    
    <glyph glyph-name="gongnengdingyi" unicode="&#60343;" d="M707.2 545.024l-198.496-115.264-195.072 111.712c-37.088 21.12-68.736-34.528-31.648-55.616l198.72-113.792v-256.736a32 32 0 0 1 64 0v258.016c0 1.056-0.512 1.952-0.608 3.008l194.752 113.088c37.088 21.056 5.44 76.704-31.648 55.584zM880.288 663.52L560.192 850.88a95.648 95.648 0 0 1-96.64 0L143.68 663.52A96.64 96.64 0 0 1 96 580.096v-397.664c0-34.784 18.624-66.88 48.736-84l320-181.92a95.52 95.52 0 0 1 94.496 0l320 181.92A96.576 96.576 0 0 1 928 182.43200000000002V580.096a96.64 96.64 0 0 1-47.712 83.424zM864 182.43200000000002c0-11.584-6.208-22.304-16.256-28l-320-181.92a31.776 31.776 0 0 0-31.488 0l-320 181.92A32.192 32.192 0 0 0 160 182.43200000000002V580.096c0 11.456 6.048 22.016 15.904 27.808l319.872 187.36a31.84 31.84 0 0 0 32.192 0l320.128-187.392c9.856-5.728 15.904-16.32 15.904-27.776v-397.664z"  horiz-adv-x="1024" />

    
    <glyph glyph-name="yunduanxiazai" unicode="&#60445;" d="M808.192 649.472a320.16 320.16 0 0 1-592.352 0A238.592 238.592 0 0 1 32 416.064c0-132.352 107.648-240 240-240h91.488a32 32 0 1 1 0 64H272a176.192 176.192 0 0 0-176 176 175.04 175.04 0 0 0 148.48 173.888l19.04 2.976 6.24 18.24C305.248 714.592 402.592 784.064 512 784.064a256 256 0 0 0 242.208-172.896l6.272-18.24 19.04-2.976A175.04 175.04 0 0 0 928 416.064c0-97.024-78.976-176-176-176h-97.28a32 32 0 1 1 0-64h97.28c132.352 0 240 107.648 240 240a238.592 238.592 0 0 1-183.808 233.408zM649.792 106.112L544 19.52V448.064a32 32 0 0 1-64 0V19.52l-106.752 87.424a31.968 31.968 0 1 1-40.544-49.504l159.04-130.24a32 32 0 0 1 40.576 0l158.048 129.44a32 32 0 1 1-40.576 49.472z"  horiz-adv-x="1024" />

    
    <glyph glyph-name="yunduanshangchuan" unicode="&#60446;" d="M808.192 633.408a320.16 320.16 0 0 1-592.352 0A238.592 238.592 0 0 1 32 400C32 267.648 139.648 160 272 160h91.488a32 32 0 1 1 0 64H272A176.192 176.192 0 0 0 96 400a175.04 175.04 0 0 0 148.48 173.888l19.04 2.976 6.24 18.24C305.248 698.528 402.592 768 512 768a256 256 0 0 0 242.208-172.896l6.272-18.24 19.04-2.976A175.04 175.04 0 0 0 928 400c0-97.024-78.976-176-176-176h-97.28a32 32 0 1 1 0-64h97.28c132.352 0 240 107.648 240 240a238.592 238.592 0 0 1-183.808 233.408zM649.792 325.952a32 32 0 1 1 40.544 49.536l-158.048 129.408a32 32 0 0 1-40.576 0l-159.04-130.24a32.032 32.032 0 0 1 20.256-56.768 31.744 31.744 0 0 1 20.256 7.264L480 412.544V-16a32 32 0 0 1 64 0V412.544l105.792-86.592z"  horiz-adv-x="1024" />

    
    <glyph glyph-name="fuzhi" unicode="&#60538;" d="M720 704h-544A80.096 80.096 0 0 1 96 624v-608C96-28.128000000000043 131.904-64 176-64h544c44.128 0 80 35.872 80 80v608C800 668.096 764.128 704 720 704z m16-688c0-8.8-7.2-16-16-16h-544a16 16 0 0 0-16 16v608a16 16 0 0 0 16 16h544a16 16 0 0 0 16-16v-608zM848 832h-544a32 32 0 0 1 0-64h544a16 16 0 0 0 16-16v-608a32 32 0 1 1 64 0v608C928 796.096 892.128 832 848 832zM608 536H288a32 32 0 0 1 0-64h320a32 32 0 1 1 0 64zM608 376H288a32 32 0 1 1 0-64h320a32 32 0 1 1 0 64zM480 217.34400000000005H288a32 32 0 1 1 0-64h192a32 32 0 1 1 0 64z"  horiz-adv-x="1024" />

    
    <glyph glyph-name="shanchu" unicode="&#60539;" d="M928.16 752H736V832a32 32 0 0 1-32 32H320a32 32 0 0 1-32-32v-80H95.84a32 32 0 0 1 0-64H129.6l77.92-698.656A96 96 0 0 1 302.912-96h418.144a96.032 96.032 0 0 1 95.424 85.344L894.4 688h33.728a32 32 0 0 1 0.032 64zM352 800h320v-48H352V800z m400.896-803.552a32 32 0 0 0-31.808-28.448H302.912a32 32 0 0 0-31.808 28.448L193.984 688h636.032l-77.12-691.552zM608 75.072a32 32 0 0 1 32 32V576.896a32 32 0 0 1-64 0v-469.824a32 32 0 0 1 32-32zM432 75.072a32 32 0 0 1 32 32V576.896a32 32 0 0 1-64 0v-469.824a32 32 0 0 1 32-32z"  horiz-adv-x="1024" />

    
    <glyph glyph-name="tupiantianjia" unicode="&#60541;" d="M856.32 467.936c-94.816 0-144.928-90.656-185.184-163.52-25.824-46.688-52.512-94.944-78.72-97.568-28.544 5.664-48.096 23.2-70.656 43.36-31.744 28.448-67.488 60.288-130.464 57.952-76.8-3.328-146.24-57.696-206.4-161.696a32 32 0 0 1 55.392-32.064c48.48 83.84 100.224 127.488 153.728 129.824 36.928 1.44 56.96-16.576 84.992-41.664 26.88-24.096 57.344-51.36 105.888-59.392a31.584 31.584 0 0 1 5.216-0.448c64.704 0 101.44 66.464 136.96 130.72 28.352 51.328 57.504 104 97.184 123.072v-369.984H128V664.32h488.16a32 32 0 1 1 0 64H96a32 32 0 0 1-32-32v-701.824a32 32 0 0 1 32-32h760.32a32 32 0 0 1 32 32V435.936a32 32 0 0 1-32 32zM180.96 471.68c0-57.952 47.168-105.12 105.12-105.12s105.12 47.168 105.12 105.12-47.168 105.088-105.12 105.088-105.12-47.136-105.12-105.088z m146.24 0a41.152 41.152 0 0 0-82.24 0 41.152 41.152 0 0 0 82.24 0zM960 721.344h-61.376V782.72a32 32 0 1 1-64 0v-61.344H752.64a32 32 0 1 1 0-64h81.984v-81.984a32 32 0 1 1 64 0V657.344H960a32 32 0 1 1 0 64z"  horiz-adv-x="1024" />

    
    <glyph glyph-name="compress" unicode="&#59668;" d="M326 232H104c-8.8 0-16-7.2-16-16v-48c0-8.8 7.2-16 16-16h174v-176c0-8.8 7.2-16 16-16h48c8.8 0 16 7.2 16 16V200c0 17.7-14.3 32-32 32zM342 808h-48c-8.8 0-16-7.2-16-16v-176H104c-8.8 0-16-7.2-16-16v-48c0-8.8 7.2-16 16-16h222c17.7 0 32 14.3 32 32V792c0 8.8-7.2 16-16 16zM920 232H698c-17.7 0-32-14.3-32-32v-224c0-8.8 7.2-16 16-16h48c8.8 0 16 7.2 16 16V152h174c8.8 0 16 7.2 16 16v48c0 8.8-7.2 16-16 16zM920 616H746V792c0 8.8-7.2 16-16 16h-48c-8.8 0-16-7.2-16-16v-224c0-17.7 14.3-32 32-32h222c8.8 0 16 7.2 16 16v48c0 8.8-7.2 16-16 16z"  horiz-adv-x="1024" />

    
    <glyph glyph-name="expend" unicode="&#59669;" d="M342 808H120c-17.7 0-32-14.3-32-32v-224c0-8.8 7.2-16 16-16h48c8.8 0 16 7.2 16 16V728h174c8.8 0 16 7.2 16 16v48c0 8.8-7.2 16-16 16zM920 232h-48c-8.8 0-16-7.2-16-16v-176H682c-8.8 0-16-7.2-16-16v-48c0-8.8 7.2-16 16-16h222c17.7 0 32 14.3 32 32V216c0 8.8-7.2 16-16 16zM342 40H168V216c0 8.8-7.2 16-16 16h-48c-8.8 0-16-7.2-16-16v-224c0-17.7 14.3-32 32-32h222c8.8 0 16 7.2 16 16v48c0 8.8-7.2 16-16 16zM904 808H682c-8.8 0-16-7.2-16-16v-48c0-8.8 7.2-16 16-16h174v-176c0-8.8 7.2-16 16-16h48c8.8 0 16 7.2 16 16V776c0 17.7-14.3 32-32 32z"  horiz-adv-x="1024" />

    


  </font>
</defs>
</svg>
